HIERARCHY
ROOT Hips
{
  OFFSET -0.646915 101.797 0.792983
  CHANNELS 6 Xposition Yposition Zposition Zrotation Xrotation Yrotation
  JOINT Spine
  {
    OFFSET 0 10.1816 0.1315
    CHANNELS 6 Xposition Yposition Zposition Zrotation Xrotation Yrotation
    JOINT Spine1
    {
      OFFSET 0 10.0835 -1.0008
      CHANNELS 6 Xposition Yposition Zposition Zrotation Xrotation Yrotation
      JOINT Spine2
      {
        OFFSET 0 9.1 -1.3734
        CHANNELS 6 Xposition Yposition Zposition Zrotation Xrotation Yrotation
        JOINT Neck
        {
          OFFSET 0 16.6717 -2.5162
          CHANNELS 6 Xposition Yposition Zposition Zrotation Xrotation Yrotation
          JOINT Head
          {
            OFFSET 0 9.6179 1.685
            CHANNELS 6 Xposition Yposition Zposition Zrotation Xrotation Yrotation
            JOINT HeadTop_End
            {
              OFFSET 0 17.8152 2.585
              CHANNELS 6 Xposition Yposition Zposition Zrotation Xrotation Yrotation
              End Site
              {
                OFFSET 0 0 0
              }
            }
            JOINT LeftEye
            {
              OFFSET 3.0676 6.4095 9.2836
              CHANNELS 6 Xposition Yposition Zposition Zrotation Xrotation Yrotation
              End Site
              {
                OFFSET 0 0 0
              }
            }
            JOINT RightEye
            {
              OFFSET -3.0676 6.4095 9.2835
              CHANNELS 6 Xposition Yposition Zposition Zrotation Xrotation Yrotation
              End Site
              {
                OFFSET 0 0 0
              }
            }
          }
        }
        JOINT LeftShoulder
        {
          OFFSET 4.5704 10.946 -2.628
          CHANNELS 6 Xposition Yposition Zposition Zrotation Xrotation Yrotation
          JOINT LeftArm
          {
            OFFSET 10.5924 -0.5246 -2.2321
            CHANNELS 6 Xposition Yposition Zposition Zrotation Xrotation Yrotation
            JOINT LeftForeArm
            {
              OFFSET 27.8415 -0.0001 0
              CHANNELS 6 Xposition Yposition Zposition Zrotation Xrotation Yrotation
              JOINT LeftHand
              {
                OFFSET 28.3288 0 0
                CHANNELS 6 Xposition Yposition Zposition Zrotation Xrotation Yrotation
                JOINT LeftHandThumb1
                {
                  OFFSET 2.4661 -1.575 2.6824
                  CHANNELS 6 Xposition Yposition Zposition Zrotation Xrotation Yrotation
                  JOINT LeftHandThumb2
                  {
                    OFFSET 3.2298 -1.8647 1.8647
                    CHANNELS 6 Xposition Yposition Zposition Zrotation Xrotation Yrotation
                    JOINT LeftHandThumb3
                    {
                      OFFSET 2.6526 -1.5315 1.5315
                      CHANNELS 6 Xposition Yposition Zposition Zrotation Xrotation Yrotation
                      End Site
                      {
                        OFFSET 1.9546 -1.1285 1.1285
                      }
                    }
                  }
                }
                JOINT LeftHandIndex1
                {
                  OFFSET 9.1093 -0.5171 2.2601
                  CHANNELS 6 Xposition Yposition Zposition Zrotation Xrotation Yrotation
                  JOINT LeftHandIndex2
                  {
                    OFFSET 3.6764 0 0
                    CHANNELS 6 Xposition Yposition Zposition Zrotation Xrotation Yrotation
                    JOINT LeftHandIndex3
                    {
                      OFFSET 2.8831 0 0
                      CHANNELS 6 Xposition Yposition Zposition Zrotation Xrotation Yrotation
                      End Site
                      {
                        OFFSET 2.3927 0 0
                      }
                    }
                  }
                }
                JOINT LeftHandMiddle1
                {
                  OFFSET 9.5334 0 0
                  CHANNELS 6 Xposition Yposition Zposition Zrotation Xrotation Yrotation
                  JOINT LeftHandMiddle2
                  {
                    OFFSET 3.6982 0 0
                    CHANNELS 6 Xposition Yposition Zposition Zrotation Xrotation Yrotation
                    JOINT LeftHandMiddle3
                    {
                      OFFSET 2.9509 0 0
                      CHANNELS 6 Xposition Yposition Zposition Zrotation Xrotation Yrotation
                      End Site
                      {
                        OFFSET 2.8339 0 0
                      }
                    }
                  }
                }
                JOINT LeftHandRing1
                {
                  OFFSET 9.1045 -0.0439 -1.8651
                  CHANNELS 6 Xposition Yposition Zposition Zrotation Xrotation Yrotation
                  JOINT LeftHandRing2
                  {
                    OFFSET 3.154 0 0
                    CHANNELS 6 Xposition Yposition Zposition Zrotation Xrotation Yrotation
                    JOINT LeftHandRing3
                    {
                      OFFSET 2.9377 0 0
                      CHANNELS 6 Xposition Yposition Zposition Zrotation Xrotation Yrotation
                      End Site
                      {
                        OFFSET 2.6475 0 0
                      }
                    }
                  }
                }
                JOINT LeftHandPinky1
                {
                  OFFSET 8.0778 -0.4887 -3.8061
                  CHANNELS 6 Xposition Yposition Zposition Zrotation Xrotation Yrotation
                  JOINT LeftHandPinky2
                  {
                    OFFSET 3.6 0 0
                    CHANNELS 6 Xposition Yposition Zposition Zrotation Xrotation Yrotation
                    JOINT LeftHandPinky3
                    {
                      OFFSET 2.1142 0 0
                      CHANNELS 6 Xposition Yposition Zposition Zrotation Xrotation Yrotation
                      End Site
                      {
                        OFFSET 1.9757 0 0
                      }
                    }
                  }
                }
              }
            }
          }
        }
        JOINT RightShoulder
        {
          OFFSET -4.57 10.9462 -2.628
          CHANNELS 6 Xposition Yposition Zposition Zrotation Xrotation Yrotation
          JOINT RightArm
          {
            OFFSET -10.5928 -0.5248 -2.2321
            CHANNELS 6 Xposition Yposition Zposition Zrotation Xrotation Yrotation
            JOINT RightForeArm
            {
              OFFSET -27.8415 0 0
              CHANNELS 6 Xposition Yposition Zposition Zrotation Xrotation Yrotation
              JOINT RightHand
              {
                OFFSET -28.3288 0 0.0001
                CHANNELS 6 Xposition Yposition Zposition Zrotation Xrotation Yrotation
                JOINT RightHandPinky1
                {
                  OFFSET -8.0767 -0.4885 -3.806
                  CHANNELS 6 Xposition Yposition Zposition Zrotation Xrotation Yrotation
                  JOINT RightHandPinky2
                  {
                    OFFSET -3.6 0 0.0001
                    CHANNELS 6 Xposition Yposition Zposition Zrotation Xrotation Yrotation
                    JOINT RightHandPinky3
                    {
                      OFFSET -2.1142 0 0
                      CHANNELS 6 Xposition Yposition Zposition Zrotation Xrotation Yrotation
                      End Site
                      {
                        OFFSET -1.9757 0 0
                      }
                    }
                  }
                }
                JOINT RightHandRing1
                {
                  OFFSET -9.1036 -0.0439 -1.8651
                  CHANNELS 6 Xposition Yposition Zposition Zrotation Xrotation Yrotation
                  JOINT RightHandRing2
                  {
                    OFFSET -3.154 0 0
                    CHANNELS 6 Xposition Yposition Zposition Zrotation Xrotation Yrotation
                    JOINT RightHandRing3
                    {
                      OFFSET -2.9377 0 0
                      CHANNELS 6 Xposition Yposition Zposition Zrotation Xrotation Yrotation
                      End Site
                      {
                        OFFSET -2.6475 0 0
                      }
                    }
                  }
                }
                JOINT RightHandMiddle1
                {
                  OFFSET -9.5325 0 0
                  CHANNELS 6 Xposition Yposition Zposition Zrotation Xrotation Yrotation
                  JOINT RightHandMiddle2
                  {
                    OFFSET -3.6982 0 0
                    CHANNELS 6 Xposition Yposition Zposition Zrotation Xrotation Yrotation
                    JOINT RightHandMiddle3
                    {
                      OFFSET -2.9509 0 0
                      CHANNELS 6 Xposition Yposition Zposition Zrotation Xrotation Yrotation
                      End Site
                      {
                        OFFSET -2.8339 0 0.0001
                      }
                    }
                  }
                }
                JOINT RightHandIndex1
                {
                  OFFSET -9.1083 -0.5168 2.2601
                  CHANNELS 6 Xposition Yposition Zposition Zrotation Xrotation Yrotation
                  JOINT RightHandIndex2
                  {
                    OFFSET -3.6764 0 0
                    CHANNELS 6 Xposition Yposition Zposition Zrotation Xrotation Yrotation
                    JOINT RightHandIndex3
                    {
                      OFFSET -2.8831 0 0
                      CHANNELS 6 Xposition Yposition Zposition Zrotation Xrotation Yrotation
                      End Site
                      {
                        OFFSET -2.3927 0 0
                      }
                    }
                  }
                }
                JOINT RightHandThumb1
                {
                  OFFSET -2.4648 -1.5727 2.6826
                  CHANNELS 6 Xposition Yposition Zposition Zrotation Xrotation Yrotation
                  JOINT RightHandThumb2
                  {
                    OFFSET -3.2298 -1.8647 1.8647
                    CHANNELS 6 Xposition Yposition Zposition Zrotation Xrotation Yrotation
                    JOINT RightHandThumb3
                    {
                      OFFSET -2.6526 -1.5314 1.5314
                      CHANNELS 6 Xposition Yposition Zposition Zrotation Xrotation Yrotation
                      End Site
                      {
                        OFFSET -1.9546 -1.1285 1.1285
                      }
                    }
                  }
                }
              }
            }
          }
        }
      }
    }
  }
  JOINT LeftUpLeg
  {
    OFFSET 8.2078 -6.7517 -1.5996
    CHANNELS 6 Xposition Yposition Zposition Zrotation Xrotation Yrotation
    JOINT LeftLeg
    {
      OFFSET 0 -44.3705 0.2846
      CHANNELS 6 Xposition Yposition Zposition Zrotation Xrotation Yrotation
      JOINT LeftFoot
      {
        OFFSET 0 -44.4279 -2.9822
        CHANNELS 6 Xposition Yposition Zposition Zrotation Xrotation Yrotation
        JOINT LeftToeBase
        {
          OFFSET 0 -8.7287 10.7106
          CHANNELS 6 Xposition Yposition Zposition Zrotation Xrotation Yrotation
          End Site
          {
            OFFSET 0 -0.0007 9.2781
          }
        }
      }
    }
  }
  JOINT RightUpLeg
  {
    OFFSET -8.2078 -6.7517 -1.5996
    CHANNELS 6 Xposition Yposition Zposition Zrotation Xrotation Yrotation
    JOINT RightLeg
    {
      OFFSET 0 -44.3705 0.2862
      CHANNELS 6 Xposition Yposition Zposition Zrotation Xrotation Yrotation
      JOINT RightFoot
      {
        OFFSET 0 -44.4277 -2.9838
        CHANNELS 6 Xposition Yposition Zposition Zrotation Xrotation Yrotation
        JOINT RightToeBase
        {
          OFFSET 0 -8.7287 10.7106
          CHANNELS 6 Xposition Yposition Zposition Zrotation Xrotation Yrotation
          End Site
          {
            OFFSET 0 -0.0007 9.2781
          }
        }
      }
    }
  }
}
MOTION
Frames:	4
Frame Time:	0.0333333
-0.646915 101.797 0.792983 8.84648 -9.73665 -4.0051 0 10.1816 0.1315 -5.46006 2.27461 1.59559 8.88178e-016 10.0835 -1.0008 -2.80872 4.57622 1.94853 0 9.1 -1.3734 -2.7997 4.59729 1.91074 0 16.6717 -2.5162 -5.04732 -2.76681 -0.596521 3.55271e-015 9.6179 1.685 2.02529 -1.80401 -2.22991 0 17.8152 2.585 -1.09332e-015 -7.95139e-016 -7.95139e-016 3.0676 6.4095 9.2836 -1.09332e-015 -7.95139e-016 -7.95139e-016 -3.0676 6.4095 9.2835 -1.09332e-015 -7.95139e-016 -7.95139e-016 4.5704 10.946 -2.628 -7.25135 5.72577 -12.8469 10.5924 -0.5246 -2.2321 -59.9049 -0.336217 6.85595 27.8415 -0.0001 7.10543e-015 -5.42695 13.9126 -23.8831 28.3288 0 2.66454e-015 7.23222 -8.55745 -2.50081 2.4661 -1.575 2.6824 -2.07575 -22.576 16.2387 3.2298 -1.8647 1.8647 5.14386 7.78205 21.7626 2.6526 -1.5315 1.5315 -6.66399e-005 -6.87711e-006 -6.9295e-005 9.1093 -0.5171 2.2601 -7.069 -4.47369 12.3422 3.6764 0 -1.77636e-015 -29.6153 -0.998726 7.25593 2.8831 -2.66454e-015 1.77636e-015 -4.77083e-015 -3.24794e-006 -3.18055e-015 9.5334 7.10543e-015 1.77636e-015 -9.61999 -10.0292 5.4735 3.6982 -7.10543e-015 8.88178e-016 -39.347 -1.26351 8.22908 2.9509 -3.55271e-015 -8.88178e-016 -5.83712e-006 -7.45471e-006 -8.41955e-006 9.1045 -0.0439 -1.8651 -22.5673 -18.2648 1.86126 3.154 -1.77636e-015 -3.55271e-015 -36.4524 -0.837876 7.9987 2.9377 0 4.44089e-016 6.46941e-006 1.47773e-006 5.84515e-006 8.0778 -0.4887 -3.8061 -34.596 -23.9131 -3.24528 3.6 -1.55431e-015 -1.77636e-015 -24.3322 0.710765 3.05868 2.1142 7.10543e-015 -1.77636e-015 2.60199e-007 -8.48365e-007 -2.96928e-006 -4.57 10.9462 -2.628 7.7499 5.58398 11.8237 -10.5928 -0.5248 -2.2321 68.9065 -12.251 -0.556667 -27.8415 0 3.55271e-015 4.21944 16.7195 11.4193 -28.3288 -7.10543e-015 0.0001 -6.32567 -8.32864 -0.00282905 -8.0767 -0.4885 -3.806 34.5974 -23.916 3.24573 -3.6 -2.88658e-015 0.0001 24.3322 0.711686 -3.05844 -2.1142 3.55271e-015 8.88178e-016 5.66514e-007 5.92127e-006 4.20066e-006 -9.1036 -0.0439 -1.8651 22.5671 -18.265 -1.86226 -3.154 -3.55271e-015 0 36.4529 -0.83065 -7.99124 -2.9377 7.10543e-015 1.77636e-015 -5.1127e-006 -2.32136e-006 -1.61123e-006 -9.5325 0 -8.88178e-016 9.61722 -10.0288 -5.48 -3.6982 0 0 39.3488 -1.26374 -8.22869 -2.9509 -7.10543e-015 0 -4.23713e-006 -8.29741e-006 -0.00202146 -9.1083 -0.5168 2.2601 7.06902 -4.4737 -12.3426 -3.6764 0 1.77636e-015 29.6146 -1.00011 -7.25887 -2.8831 -5.55112e-016 0 -1.47171e-005 -4.97031e-006 9.04908e-007 -2.4648 -1.5727 2.6826 2.07634 -22.5762 -16.2378 -3.2298 -1.8647 1.8647 -5.14312 7.78176 -21.7623 -2.6526 -1.5314 1.5314 -0.00122482 -1.97835e-006 -0.00122399 8.2078 -6.7517 -1.5996 -12.4209 3.64026 17.1016 -8.88178e-016 -44.3705 0.2846 -0.0168949 12.0957 0.289783 8.88178e-016 -44.4279 -2.9822 4.22988 -7.7999 -0.424103 -4.44089e-016 -8.7287 10.7106 1.34205e-006 -6.99927e-005 8.3973e-007 -8.2078 -6.7517 -1.5996 -23.781 -3.01725 -15.8108 -3.55271e-015 -44.3705 0.2862 0.292107 25.1685 0.0301821 0 -44.4277 -2.9838 7.48585 -9.11798 -8.3614 -3.55271e-015 -8.7287 10.7106 0.000126544 -7.03231e-005 1.04541e-005 
-0.693047 101.733 0.807462 9.13455 -10.1025 -3.97938 0 10.1816 0.1315 -5.48356 2.2805 1.61143 0 10.0835 -1.0008 -2.8256 4.59019 1.94774 -7.77156e-016 9.1 -1.3734 -2.81699 4.61123 1.90782 8.88178e-016 16.6717 -2.5162 -5.31538 -1.99985 -0.401853 0 9.6179 1.685 2.50692 -2.10488 -2.25448 0 17.8152 2.585 -3.97569e-016 0 -0 3.0676 6.4095 9.2836 -3.97569e-016 0 -0 -3.0676 6.4095 9.2835 -3.97569e-016 0 -0 4.5704 10.946 -2.628 -7.09294 5.70031 -13.0269 10.5924 -0.5246 -2.2321 -60.2915 -0.575968 6.63308 27.8415 -0.0001 0 -5.44039 13.5789 -23.2737 28.3288 0 3.55271e-015 6.92488 -8.5408 -2.36234 2.4661 -1.575 2.6824 -2.07573 -22.5759 16.2387 3.2298 -1.8647 1.8647 5.14383 7.78203 21.7626 2.6526 -1.5315 1.5315 -6.66399e-005 -6.87711e-006 -6.9295e-005 9.1093 -0.5171 2.2601 -7.069 -4.47367 12.3422 3.6764 0 0 -29.6153 -0.998725 7.25592 2.8831 4.44089e-016 0 -9.01485e-023 -3.24794e-006 -1.59028e-015 9.5334 7.10543e-015 -1.77636e-015 -9.61999 -10.0292 5.4735 3.6982 -7.10543e-015 8.88178e-016 -39.347 -1.2635 8.22908 2.9509 7.10543e-015 0 -5.83712e-006 -7.45471e-006 -8.41955e-006 9.1045 -0.0439 -1.8651 -22.5673 -18.2648 1.86126 3.154 0 1.77636e-015 -36.4524 -0.837883 7.99871 2.9377 7.10543e-015 0 6.46941e-006 1.47773e-006 5.84515e-006 8.0778 -0.4887 -3.8061 -34.596 -23.9131 -3.24527 3.6 0 -2.66454e-015 -24.3322 0.710769 3.05867 2.1142 7.10543e-015 0 2.60199e-007 -8.48365e-007 -2.96928e-006 -4.57 10.9462 -2.628 7.75128 5.58344 11.9569 -10.5928 -0.5248 -2.2321 68.4378 -12.1005 -2.4261 -27.8415 -7.10543e-015 3.55271e-015 3.01389 18.1106 14.8138 -28.3288 0 0.0001 -6.71492 -8.28543 -1.61181 -8.0767 -0.4885 -3.806 34.3248 -23.9301 3.17716 -3.6 -1.77636e-015 0.0001 23.9968 0.728653 -2.99876 -2.1142 0 4.44089e-016 5.66514e-007 5.92127e-006 4.20066e-006 -9.1036 -0.0439 -1.8651 22.2673 -18.2556 -1.91144 -3.154 0 -8.88178e-016 36.1723 -0.791374 -7.94921 -2.9377 0 0 -5.1127e-006 -2.32136e-006 -1.61123e-006 -9.5325 0 8.88178e-016 9.22107 -9.9914 -5.48871 -3.6982 0 -4.44089e-016 39.0903 -1.22645 -8.19251 -2.9509 5.32907e-015 0 -4.23713e-006 -8.29741e-006 -0.00202146 -9.1083 -0.5168 2.2601 6.73024 -4.39987 -12.3171 -3.6764 7.10543e-015 -1.77636e-015 29.2624 -0.955412 -7.20775 -2.8831 4.66294e-015 0 -1.47171e-005 -4.97031e-006 9.04908e-007 -2.4648 -1.5727 2.6826 2.15717 -22.7041 -15.9226 -3.2298 -1.8647 1.8647 -5.11479 7.67379 -21.5443 -2.6526 -1.5314 1.5314 -0.00122482 -1.97835e-006 -0.00122399 8.2078 -6.7517 -1.5996 -12.7233 3.93623 17.0769 4.44089e-016 -44.3705 0.2846 -0.0174203 12.2377 0.291406 4.44089e-016 -44.4279 -2.9822 4.21977 -7.89503 -0.29683 0 -8.7287 10.7106 1.34205e-006 -6.99927e-005 8.3973e-007 -8.2078 -6.7517 -1.5996 -24.134 -2.92736 -15.5228 0 -44.3705 0.2862 0.295167 25.6879 0.0155182 3.55271e-015 -44.4277 -2.9838 7.49145 -9.42334 -8.42955 0 -8.7287 10.7106 0.000124827 -6.49275e-005 -1.85812e-006 
-0.776704 101.577 0.88228 9.50881 -10.6414 -4.06287 -3.55271e-015 10.1816 0.1315 -5.55037 2.36248 1.65632 8.88178e-016 10.0835 -1.0008 -2.86692 4.75885 1.9493 7.21645e-016 9.1 -1.3734 -2.85785 4.78 1.90732 1.77636e-015 16.6717 -2.5162 -5.52197 -0.345273 -0.0470928 7.10543e-015 9.6179 1.685 3.15482 -3.58069 -2.11067 1.77636e-015 17.8152 2.585 1.75179e-015 -3.97569e-016 7.95139e-016 3.0676 6.4095 9.2836 1.75179e-015 -3.97569e-016 7.95139e-016 -3.0676 6.4095 9.2835 1.75179e-015 -3.97569e-016 7.95139e-016 4.5704 10.946 -2.628 -6.67625 5.63126 -13.5102 10.5924 -0.5246 -2.2321 -60.9388 -0.937581 6.51193 27.8415 -0.0001 0 -5.65415 12.5691 -22.6269 28.3288 7.10543e-015 -3.10862e-015 6.92925 -8.53549 -2.21369 2.4661 -1.575 2.6824 -2.07574 -22.5759 16.2387 3.2298 -1.8647 1.8647 5.14387 7.78204 21.7626 2.6526 -1.5315 1.5315 -6.66399e-005 -6.87711e-006 -6.9295e-005 9.1093 -0.5171 2.2601 -7.069 -4.47368 12.3422 3.6764 7.10543e-015 8.88178e-016 -29.6153 -0.998746 7.25593 2.8831 0 -1.77636e-015 -7.95139e-016 -3.24794e-006 -0 9.5334 -7.10543e-015 1.77636e-015 -9.61999 -10.0292 5.47351 3.6982 0 -8.88178e-016 -39.347 -1.26352 8.22906 2.9509 0 0 -5.83712e-006 -7.45471e-006 -8.41955e-006 9.1045 -0.0439 -1.8651 -22.5673 -18.2648 1.86126 3.154 -1.77636e-015 1.77636e-015 -36.4524 -0.837887 7.9987 2.9377 0 4.44089e-016 6.46941e-006 1.47773e-006 5.84515e-006 8.0778 -0.4887 -3.8061 -34.596 -23.9131 -3.24528 3.6 -2.44249e-015 -2.66454e-015 -24.3322 0.710766 3.05868 2.1142 7.10543e-015 -3.55271e-015 2.60199e-007 -8.48365e-007 -2.96928e-006 -4.57 10.9462 -2.628 7.81952 5.59236 12.2226 -10.5928 -0.5248 -2.2321 67.2816 -12.6332 -4.29311 -27.8415 0 0 0.635619 21.6023 18.2936 -28.3288 -7.10543e-015 0.0001 -8.11201 -8.23647 -3.54409 -8.0767 -0.4885 -3.806 33.5598 -23.9673 2.98426 -3.6 0 0.0001 23.0774 0.774354 -2.83526 -2.1142 -3.55271e-015 0 5.66514e-007 5.92127e-006 4.20066e-006 -9.1036 -0.0439 -1.8651 21.436 -18.2283 -2.04756 -3.154 0 0 35.3937 -0.683474 -7.83158 -2.9377 3.55271e-015 0 -5.1127e-006 -2.32136e-006 -1.61123e-006 -9.5325 7.10543e-015 -2.66454e-015 8.14605 -9.88942 -5.51104 -3.6982 -7.10543e-015 0 38.3681 -1.12314 -8.0905 -2.9509 3.55271e-015 1.77636e-015 -4.23713e-006 -8.29741e-006 -0.00202146 -9.1083 -0.5168 2.2601 5.80345 -4.19868 -12.2452 -3.6764 0 0 28.3006 -0.834968 -7.06682 -2.8831 3.55271e-015 0 -1.47171e-005 -4.97031e-006 9.04908e-007 -2.4648 -1.5727 2.6826 2.38071 -23.049 -15.0646 -3.2298 -1.8647 1.8647 -5.03434 7.37629 -20.9425 -2.6526 -1.5314 1.5314 -0.00122482 -1.97835e-006 -0.00122399 8.2078 -6.7517 -1.5996 -13.0717 4.12115 16.8845 -1.11022e-015 -44.3705 0.2846 -0.0360863 13.0035 0.272488 -1.33227e-015 -44.4279 -2.9822 4.21842 -8.3354 0.210724 -2.22045e-016 -8.7287 10.7106 1.34205e-006 -6.99927e-005 8.3973e-007 -8.2078 -6.7517 -1.5996 -24.6049 -2.93648 -14.8936 3.55271e-015 -44.3705 0.2862 0.302978 26.6934 0.0129121 3.55271e-015 -44.4277 -2.9838 7.55058 -10.04 -8.61731 -3.55271e-015 -8.7287 10.7106 5.47526e-005 -3.85555e-005 -5.73082e-006 
-0.892044 101.368 0.957726 9.89935 -11.3969 -4.25556 0 10.1816 0.1315 -5.66568 2.58779 1.71953 0 10.0835 -1.0008 -2.93565 5.21674 1.92283 -4.44089e-016 9.1 -1.3734 -2.9258 5.23801 1.87725 1.77636e-015 16.6717 -2.5162 -5.70032 1.8035 0.402175 -3.55271e-015 9.6179 1.685 3.64748 -5.7603 -1.82385 0 17.8152 2.585 4.28629e-016 1.98785e-016 3.97569e-016 3.0676 6.4095 9.2836 4.28629e-016 1.98785e-016 3.97569e-016 -3.0676 6.4095 9.2835 4.28629e-016 1.98785e-016 3.97569e-016 4.5704 10.946 -2.628 -5.519 5.42019 -14.6126 10.5924 -0.5246 -2.2321 -62.5072 -1.86493 6.27976 27.8415 -0.0001 0 -5.69732 11.2356 -21.9155 28.3288 -1.42109e-014 1.33227e-015 7.01157 -8.53278 -2.14303 2.4661 -1.575 2.6824 -2.07574 -22.576 16.2387 3.2298 -1.8647 1.8647 5.14384 7.78202 21.7626 2.6526 -1.5315 1.5315 -6.66399e-005 -6.87711e-006 -6.9295e-005 9.1093 -0.5171 2.2601 -7.06899 -4.47367 12.3422 3.6764 7.10543e-015 0 -29.6153 -0.998742 7.25592 2.8831 -8.88178e-016 1.77636e-015 3.18055e-015 -3.24794e-006 -3.18055e-015 9.5334 0 0 -9.61998 -10.0292 5.47352 3.6982 0 8.88178e-016 -39.347 -1.26351 8.22907 2.9509 -3.55271e-015 0 -5.83712e-006 -7.45471e-006 -8.41955e-006 9.1045 -0.0439 -1.8651 -22.5673 -18.2648 1.86127 3.154 5.32907e-015 0 -36.4524 -0.837889 7.99869 2.9377 -7.10543e-015 4.44089e-016 6.46941e-006 1.47773e-006 5.84515e-006 8.0778 -0.4887 -3.8061 -34.5959 -23.9131 -3.24527 3.6 3.55271e-015 -8.88178e-016 -24.3322 0.710753 3.05868 2.1142 -1.42109e-014 -1.77636e-015 2.60199e-007 -8.48365e-007 -2.96928e-006 -4.57 10.9462 -2.628 7.48888 5.54681 13.0286 -10.5928 -0.5248 -2.2321 65.941 -13.9839 -5.05349 -27.8415 0 3.55271e-015 -2.44009 25.9781 20.4862 -28.3288 0 0.0001 -8.21548 -8.01395 -5.24578 -8.0767 -0.4885 -3.806 32.382 -24.0182 2.68592 -3.6 -7.10543e-015 0.0001 21.7045 0.840551 -2.59117 -2.1142 1.77636e-015 -8.88178e-016 5.66514e-007 5.92127e-006 4.20066e-006 -9.1036 -0.0439 -1.8651 20.175 -18.1833 -2.25321 -3.154 -7.10543e-015 8.88178e-016 34.2113 -0.522756 -7.65026 -2.9377 1.77636e-015 0 -5.1127e-006 -2.32136e-006 -1.61123e-006 -9.5325 1.42109e-014 0 6.56255 -9.73847 -5.54037 -3.6982 7.10543e-015 0 37.262 -0.967481 -7.93184 -2.9509 -4.44089e-016 3.55271e-015 -4.23713e-006 -8.29741e-006 -0.00202146 -9.1083 -0.5168 2.2601 4.42301 -3.90122 -12.1321 -3.6764 -7.10543e-015 0 26.871 -0.660438 -6.85371 -2.8831 -7.10543e-015 0 -1.47171e-005 -4.97031e-006 9.04908e-007 -2.4648 -1.5727 2.6826 2.72142 -23.5516 -13.7936 -3.2298 -1.8647 1.8647 -4.90726 6.92945 -20.0352 -2.6526 -1.5314 1.5314 -0.00122482 -1.97835e-006 -0.00122399 8.2078 -6.7517 -1.5996 -13.4634 4.33782 16.4618 0 -44.3705 0.2846 -0.0609463 14.1046 0.24525 0 -44.4279 -2.9822 4.22815 -8.93862 1.13973 -4.44089e-016 -8.7287 10.7106 1.34205e-006 -6.99927e-005 8.3973e-007 -8.2078 -6.7517 -1.5996 -25.0982 -2.92244 -14.0043 3.55271e-015 -44.3705 0.2862 0.312662 27.9572 0.0108214 7.10543e-015 -44.4277 -2.9838 7.61084 -10.8074 -8.85148 -3.55271e-015 -8.7287 10.7106 8.28168e-005 -5.77277e-005 -2.86554e-006 
